<svg version="1.1" viewBox="0.0 0.0 16.0 16.0" fill="none" stroke="none" stroke-linecap="square" stroke-miterlimit="10" xmlns:xlink="http://www.w3.org/1999/xlink" xmlns="http://www.w3.org/2000/svg"><clipPath id="p.0"><path d="m0 0l16.0 0l0 16.0l-16.0 0l0 -16.0z" clip-rule="nonzero"/></clipPath><g clip-path="url(#p.0)"><path fill="#000000" fill-opacity="0.0" d="m0 0l16.0 0l0 16.0l-16.0 0z" fill-rule="evenodd"/><path fill="#6aa84f" d="m0 8.0l0 0c0 -4.4182777 3.581722 -8.0 8.0 -8.0l0 0c2.1217318 0 4.156563 0.84285474 5.6568546 2.3431458c1.5002909 1.5002909 2.3431454 3.5351224 2.3431454 5.656854l0 0c0 4.4182777 -3.5817223 8.0 -8.0 8.0l0 0c-4.4182777 0 -8.0 -3.5817223 -8.0 -8.0z" fill-rule="evenodd"/><path fill="#ffffff" d="m6.968504 2.6141732l0 0c0 -0.56533074 0.45829105 -1.023622 1.023622 -1.023622l0 0l0 0c0.27148104 0 0.53184366 0.107845664 0.7238097 0.29981196c0.19196701 0.19196641 0.29981232 0.4523288 0.29981232 0.7238101l0 10.771654c0 0.5653305 -0.45829105 1.0236216 -1.023622 1.0236216l0 0l0 0c-0.565331 0 -1.023622 -0.45829105 -1.023622 -1.0236216z" fill-rule="evenodd"/><path fill="#ffffff" d="m13.377953 6.976378l0 0c0.56533146 0 1.0236225 0.45829105 1.0236225 1.023622l0 0l0 0c0 0.2714815 -0.10784626 0.53184414 -0.29981232 0.7238102c-0.19196606 0.19196606 -0.45232868 0.29981232 -0.7238102 0.29981232l-10.771653 0c-0.56533074 0 -1.023622 -0.458292 -1.023622 -1.0236225l0 0l0 0c0 -0.565331 0.4582913 -1.023622 1.023622 -1.023622z" fill-rule="evenodd"/></g></svg>