<svg version="1.1" viewBox="0.0 0.0 16.0 16.0" fill="none" stroke="none" stroke-linecap="square" stroke-miterlimit="10" xmlns:xlink="http://www.w3.org/1999/xlink" xmlns="http://www.w3.org/2000/svg"><clipPath id="p.0"><path d="m0 0l16.0 0l0 16.0l-16.0 0l0 -16.0z" clip-rule="nonzero"/></clipPath><g clip-path="url(#p.0)"><path fill="#000000" fill-opacity="0.0" d="m0 0l16.0 0l0 16.0l-16.0 0z" fill-rule="evenodd"/><path fill="#1155cc" d="m0 0l13.383253 0l2.648243 2.648243l0 13.383253l-16.031496 0z" fill-rule="evenodd"/><path fill="#1155cc" d="m4.309748 8.0l7.411999 0l0 0c0.4914608 0 0.96279335 0.19523239 1.3103085 0.5427475c0.3475151 0.3475151 0.5427475 0.8188467 0.5427475 1.3103075l0 9.265056c0 5.1498413E-5 -4.196167E-5 9.1552734E-5 -9.250641E-5 9.1552734E-5l-11.118018 -9.1552734E-5l0 0c-5.1259995E-5 0 -9.274483E-5 -4.196167E-5 -9.274483E-5 -9.346008E-5l9.274483E-5 -9.264962l0 0c0 -1.0234137 0.8296411 -1.853055 1.8530552 -1.853055z" fill-rule="evenodd"/><path stroke="#ffffff" stroke-width="1.0" stroke-linejoin="round" stroke-linecap="butt" d="m4.309748 8.0l7.411999 0l0 0c0.4914608 0 0.96279335 0.19523239 1.3103085 0.5427475c0.3475151 0.3475151 0.5427475 0.8188467 0.5427475 1.3103075l0 9.265056c0 5.1498413E-5 -4.196167E-5 9.1552734E-5 -9.250641E-5 9.1552734E-5l-11.118018 -9.1552734E-5l0 0c-5.1259995E-5 0 -9.274483E-5 -4.196167E-5 -9.274483E-5 -9.346008E-5l9.274483E-5 -9.264962l0 0c0 -1.0234137 0.8296411 -1.853055 1.8530552 -1.853055z" fill-rule="evenodd"/><path fill="#ffffff" d="m3.480315 2.0840068l0 0c0 -0.47546732 0.38544226 -0.8609097 0.8609097 -0.8609097l7.3490467 0c0.22832775 0 0.44730282 0.09070277 0.6087551 0.2521546c0.1614523 0.16145194 0.25215435 0.3804276 0.25215435 0.6087551l0 3.4435349c0 0.47546768 -0.38544178 0.86090994 -0.86090946 0.86090994l-7.3490467 0c-0.47546744 0 -0.8609097 -0.38544226 -0.8609097 -0.86090994z" fill-rule="evenodd"/><path fill="#1155cc" d="m9.554499 2.047244l2.047244 0l0 3.5275593l-2.047244 0z" fill-rule="evenodd"/></g></svg>