<svg version="1.1" viewBox="0.0 0.0 128.0 128.0" fill="none" stroke="none" stroke-linecap="square" stroke-miterlimit="10" xmlns:xlink="http://www.w3.org/1999/xlink" xmlns="http://www.w3.org/2000/svg"><clipPath id="p.0"><path d="m0 0l128.0 0l0 128.0l-128.0 0l0 -128.0z" clip-rule="nonzero"/></clipPath><g clip-path="url(#p.0)"><path fill="#000000" fill-opacity="0.0" d="m0 0l128.0 0l0 128.0l-128.0 0z" fill-rule="evenodd"/><path fill="#38761d" d="m0 0l15.874016 0l0 128.0l-15.874016 0z" fill-rule="evenodd"/><path fill="#6aa84f" d="m9.795276 0l118.23622 0l0 128.0l-118.23622 0z" fill-rule="evenodd"/><g filter="url(#shadowFilter-p.1)"><use xlink:href="#p.1" transform="matrix(1.0 0.0 0.0 1.0 0.0 2.0)"/></g><defs><filter id="shadowFilter-p.1" filterUnits="userSpaceOnUse"><feGaussianBlur in="SourceAlpha" stdDeviation="2.0" result="blur"/><feComponentTransfer in="blur" color-interpolation-filters="sRGB"><feFuncR type="linear" slope="0" intercept="0.0"/><feFuncG type="linear" slope="0" intercept="0.0"/><feFuncB type="linear" slope="0" intercept="0.0"/><feFuncA type="linear" slope="0.5" intercept="0"/></feComponentTransfer></filter></defs><g id="p.1"><path fill="#ffffff" d="m106.005066 137.4969l-60.384453 -57.51722l60.384453 -57.51723z" fill-rule="evenodd"/></g><g filter="url(#shadowFilter-p.2)"><use xlink:href="#p.2" transform="matrix(1.0 0.0 0.0 1.0 0.0 2.0)"/></g><defs><filter id="shadowFilter-p.2" filterUnits="userSpaceOnUse"><feGaussianBlur in="SourceAlpha" stdDeviation="2.0" result="blur"/><feComponentTransfer in="blur" color-interpolation-filters="sRGB"><feFuncR type="linear" slope="0" intercept="0.0"/><feFuncG type="linear" slope="0" intercept="0.0"/><feFuncB type="linear" slope="0" intercept="0.0"/><feFuncA type="linear" slope="0.5" intercept="0"/></feComponentTransfer></filter></defs><g id="p.2"><path fill="#ffffff" d="m170.21086 79.998856l0 0c0 35.460777 -28.746643 64.20741 -64.20741 64.20741l0 0c-17.02887 0 -33.360275 -6.764694 -45.401505 -18.805916c-12.041229 -12.041222 -18.80592 -28.372635 -18.80592 -45.401497l0 0c0 -35.46078 28.74664 -64.20743 64.20743 -64.20743l0 0c35.46077 0 64.20741 28.746643 64.20741 64.20743zm-25.089691 0l0 0c0 -21.60413 -17.513603 -39.117733 -39.11772 -39.117733c-21.604126 0 -39.11773 17.513603 -39.11773 39.117733l0 0c0 21.604118 17.513603 39.11773 39.11773 39.11773l0 0c21.604118 0 39.11772 -17.51361 39.11772 -39.11773z" fill-rule="evenodd"/></g></g></svg>