<svg version="1.1" viewBox="0.0 0.0 16.0 16.0" fill="none" stroke="none" stroke-linecap="square" stroke-miterlimit="10" xmlns:xlink="http://www.w3.org/1999/xlink" xmlns="http://www.w3.org/2000/svg"><clipPath id="p.0"><path d="m0 0l16.0 0l0 16.0l-16.0 0l0 -16.0z" clip-rule="nonzero"/></clipPath><g clip-path="url(#p.0)"><path fill="#000000" fill-opacity="0.0" d="m0 0l16.0 0l0 16.0l-16.0 0z" fill-rule="evenodd"/><path fill="#999999" d="m-0.32545933 13.23622l12.440945 0c0.29236507 0 0.57275486 -0.11614132 0.77948856 -0.32287407c0.20673275 -0.2067337 0.32287407 -0.4871235 0.32287407 -0.7794876l0 -1.1023626l-13.543307 0z" fill-rule="evenodd"/><path fill="#999999" d="m2.7591543 9.784777l0 -5.03937l2.1417322 0l0 5.03937z" fill-rule="evenodd"/><path fill="#999999" d="m9.847769 2.734908l-6.0 0c-0.28818798 0 -0.5645726 0.114482164 -0.76835227 0.31826186c-0.2037797 0.2037797 -0.31826186 0.4801643 -0.31826186 0.76835227l0 1.0866141l7.0866137 0z" fill-rule="evenodd"/><path fill="#999999" d="m13.217848 -0.097112864l0 11.212598l-2.1102362 0l0 -11.212598z" fill-rule="evenodd"/><path fill="#999999" d="m2.7585301 16.152231l0 -1.6692915l2.1417322 0l0 1.6692915z" fill-rule="evenodd"/><path fill="#999999" d="m14.477691 2.734908l1.6692915 0l0 2.1732283l-1.6692915 0z" fill-rule="evenodd"/></g></svg>