<svg version="1.1" viewBox="0.0 0.0 16.0 16.0" fill="none" stroke="none" stroke-linecap="square" stroke-miterlimit="10" xmlns:xlink="http://www.w3.org/1999/xlink" xmlns="http://www.w3.org/2000/svg"><clipPath id="p.0"><path d="m0 0l16.0 0l0 16.0l-16.0 0l0 -16.0z" clip-rule="nonzero"/></clipPath><g clip-path="url(#p.0)"><path fill="#000000" fill-opacity="0.0" d="m0 0l16.0 0l0 16.0l-16.0 0z" fill-rule="evenodd"/><path fill="#999999" d="m7.334834 2.8964958l6.083954 6.0824146l-6.083954 6.0824146l-6.083954 -6.0824146zm0 2.0236192l-4.0598226 4.0587955l4.0598226 4.058795l4.059822 -4.058795z" fill-rule="evenodd"/><path fill="#999999" d="m5.379277 0.941434l8.000511 7.9984865l-0.9805641 0.98031616l-8.000511 -7.9984865z" fill-rule="evenodd"/><path fill="#999999" d="m7.3559704 14.5572405l-5.563918 -5.5625105l11.127836 0z" fill-rule="evenodd"/><path fill="#999999" d="m12.6782055 13.869494l0 0c-0.50527 -0.4639063 -0.5387068 -1.2494755 -0.07468319 -1.7546177q0.4200945 -0.4573202 0.840189 -0.9146404q0.45743656 0.41998768 0.91487217 0.8399763l0 0c0.50527096 0.4639063 0.53870773 1.2494745 0.07468414 1.7546167l0 0c-0.4640236 0.5051422 -1.2497911 0.53857136 -1.7550621 0.07466507z" fill-rule="evenodd"/></g></svg>