<svg version="1.1" viewBox="0.0 0.0 16.0 16.0" fill="none" stroke="none" stroke-linecap="square" stroke-miterlimit="10" xmlns:xlink="http://www.w3.org/1999/xlink" xmlns="http://www.w3.org/2000/svg"><clipPath id="p.0"><path d="m0 0l16.0 0l0 16.0l-16.0 0l0 -16.0z" clip-rule="nonzero"/></clipPath><g clip-path="url(#p.0)"><path fill="#000000" fill-opacity="0.0" d="m0 0l16.0 0l0 16.0l-16.0 0z" fill-rule="evenodd"/><path fill="#6aa84f" d="m0 8.000305l0 0c0 -4.4184465 3.5818589 -8.000305 8.000305 -8.000305l0 0c2.1218128 0 4.156722 0.8428869 5.65707 2.3432353c1.500349 1.5003483 2.343235 3.535257 2.343235 5.65707l0 0c0 4.4184475 -3.5818577 8.000305 -8.000305 8.000305l0 0c-4.4184465 0 -8.000305 -3.5818577 -8.000305 -8.000305zm1.8485506 0l0 0c0 3.397521 2.7542346 6.1517553 6.1517544 6.1517553c3.397521 0 6.1517553 -2.7542343 6.1517553 -6.1517553l0 0c0 -3.39752 -2.7542343 -6.1517544 -6.1517553 -6.1517544l0 0c-3.39752 0 -6.1517544 2.7542346 -6.1517544 6.1517544z" fill-rule="evenodd"/><path fill="#6aa84f" d="m3.3811677 6.961678l9.237068 0l0 2.0870366l-9.237068 0z" fill-rule="evenodd"/><path fill="#6aa84f" d="m9.04322 3.3866622l0 9.237067l-2.0870361 0l0 -9.237067z" fill-rule="evenodd"/></g></svg>