<svg version="1.1" viewBox="0.0 0.0 16.0 16.0" fill="none" stroke="none" stroke-linecap="square" stroke-miterlimit="10" xmlns:xlink="http://www.w3.org/1999/xlink" xmlns="http://www.w3.org/2000/svg"><clipPath id="p.0"><path d="m0 0l16.0 0l0 16.0l-16.0 0l0 -16.0z" clip-rule="nonzero"/></clipPath><g clip-path="url(#p.0)"><path fill="#000000" fill-opacity="0.0" d="m0 0l16.0 0l0 16.0l-16.0 0z" fill-rule="evenodd"/><path fill="#999999" d="m0 8.0l0 0c0 -4.4182777 3.581722 -8.0 8.0 -8.0l0 0c2.1217318 0 4.156563 0.84285474 5.6568546 2.3431458c1.5002909 1.5002909 2.3431454 3.5351224 2.3431454 5.656854l0 0c0 4.4182777 -3.5817223 8.0 -8.0 8.0l0 0c-4.4182777 0 -8.0 -3.5817223 -8.0 -8.0zm1.84848 0l0 0c0 3.3973904 2.7541292 6.15152 6.15152 6.15152c3.3973904 0 6.15152 -2.7541294 6.15152 -6.15152l0 0c0 -3.3973908 -2.7541294 -6.15152 -6.15152 -6.15152l0 0c-3.3973908 0 -6.15152 2.7541292 -6.15152 6.15152z" fill-rule="evenodd"/><path fill="#999999" d="m4.16793 8.001217l0 0c0 -2.116747 1.7162423 -3.8327088 3.8333354 -3.8327088l0 0c1.0166636 0 1.9916878 0.40380192 2.710577 1.1225743c0.7188902 0.71877193 1.1227579 1.6936364 1.1227579 2.7101345l0 0c0 2.116746 -1.7162428 3.8327084 -3.833335 3.8327084l0 0c-2.117093 0 -3.8333354 -1.7159624 -3.8333354 -3.8327084zm2.2708797 0c0 0.8625736 0.6995349 1.5618286 1.5624557 1.5618286c0.8629198 0 1.5624552 -0.699255 1.5624552 -1.5618286c0 -0.8625746 -0.69953537 -1.5618291 -1.5624552 -1.5618291l0 0c-0.86292076 0 -1.5624557 0.6992545 -1.5624557 1.5618291z" fill-rule="evenodd"/><path fill="#999999" d="m6.1889386 6.0158477l0.72705936 -2.908236l2.1673245 0l0.7270584 2.908236z" fill-rule="evenodd"/><path fill="#999999" d="m9.810381 9.983376l-0.7270584 2.9082355l-2.1673245 0l-0.72705936 -2.9082355z" fill-rule="evenodd"/><path fill="#999999" d="m8.811538 5.439909l2.8825636 -0.8256693l1.0843506 1.8760705l-2.1547441 2.0848937z" fill-rule="evenodd"/><path fill="#999999" d="m7.187664 10.5605545l-2.882563 0.8256693l-1.0843508 -1.876071l2.154744 -2.0848927z" fill-rule="evenodd"/><path fill="#999999" d="m5.3760204 8.577689l-2.1569254 -2.0823483l1.0821836 -1.8771539l2.8832903 0.8223977z" fill-rule="evenodd"/><path fill="#999999" d="m10.622597 7.421968l2.1569252 2.0823483l-1.0821829 1.8771544l-2.8832903 -0.8223982z" fill-rule="evenodd"/></g></svg>