<svg version="1.1" viewBox="0.0 0.0 16.0 16.0" fill="none" stroke="none" stroke-linecap="square" stroke-miterlimit="10" xmlns:xlink="http://www.w3.org/1999/xlink" xmlns="http://www.w3.org/2000/svg"><clipPath id="p.0"><path d="m0 0l16.0 0l0 16.0l-16.0 0l0 -16.0z" clip-rule="nonzero"/></clipPath><g clip-path="url(#p.0)"><path fill="#000000" fill-opacity="0.0" d="m0 0l16.0 0l0 16.0l-16.0 0z" fill-rule="evenodd"/><path fill="#a64d79" d="m16.0 8.0l0 0c0 4.4182777 -3.5817223 8.0 -8.0 8.0l0 0c-2.1217318 0 -4.1565633 -0.8428545 -5.656854 -2.3431454c-1.5002911 -1.5002918 -2.3431458 -3.5351229 -2.3431458 -5.6568546l0 0c0 -4.4182777 3.581722 -8.0 8.0 -8.0l0 0c4.4182777 0 8.0 3.581722 8.0 8.0zm-1.8484802 0l0 0c0 -3.3973908 -2.7541294 -6.15152 -6.15152 -6.15152c-3.3973908 0 -6.15152 2.7541292 -6.15152 6.15152l0 0c0 3.3973904 2.7541292 6.15152 6.15152 6.15152l0 0c3.3973904 0 6.15152 -2.7541294 6.15152 -6.15152z" fill-rule="evenodd"/><path fill="#a64d79" d="m11.779528 5.4356956l-3.7795277 6.519685l-3.7795277 -6.519685z" fill-rule="evenodd"/></g></svg>