<svg version="1.1" viewBox="0.0 0.0 16.0 16.0" fill="none" stroke="none" stroke-linecap="square" stroke-miterlimit="10" xmlns:xlink="http://www.w3.org/1999/xlink" xmlns="http://www.w3.org/2000/svg"><clipPath id="p.0"><path d="m0 0l16.0 0l0 16.0l-16.0 0l0 -16.0z" clip-rule="nonzero"/></clipPath><g clip-path="url(#p.0)"><path fill="#000000" fill-opacity="0.0" d="m0 0l16.0 0l0 16.0l-16.0 0z" fill-rule="evenodd"/><path fill="#e95420" d="m0 6.5196853l0 0c0 -3.6007228 2.9189625 -6.5196853 6.5196853 -6.5196853l0 0c1.7291274 0 3.3874354 0.6868934 4.6101136 1.9095715c1.2226782 1.2226781 1.9095716 2.8809853 1.9095716 4.6101136l0 0c0 3.6007228 -2.9189625 6.5196853 -6.5196853 6.5196853l0 0c-3.6007228 0 -6.5196853 -2.9189625 -6.5196853 -6.5196853zm1.5064384 0l0 0c0 2.7687392 2.2445068 5.013246 5.013247 5.013246c2.7687392 0 5.013246 -2.2445068 5.013246 -5.013246l0 0c0 -2.76874 -2.2445068 -5.013247 -5.013246 -5.013247l0 0c-2.76874 0 -5.013247 2.2445068 -5.013247 5.013247z" fill-rule="evenodd"/><path fill="#e95420" d="m10.676706 9.480207l5.322835 5.322835l-1.1968508 1.1968508l-5.322835 -5.322835z" fill-rule="evenodd"/><path fill="#e95420" d="m2.7554133 5.673277l7.5275593 0l0 1.7007875l-7.5275593 0z" fill-rule="evenodd"/></g></svg>